<svg xmlns="http://www.w3.org/2000/svg" viewBox="0 0 192.37 60.92"><g id="Layer_2" data-name="Layer 2"><g id="Layer_1-2" data-name="Layer 1"><path d="M11.55,17.74V35.37H4.81V17.74H0V12.19H16.35v5.55Z"/><path d="M25.49,12.19V35.37H18.37V12.19Z"/><path d="M49.35,35.37H43.56L37.21,25.13a38.93,38.93,0,0,1-2.47-4.79,15.75,15.75,0,0,1,.56,3.8V35.37H29.53V12.19h6.72l5.4,8.49a33.15,33.15,0,0,1,2.45,4.45,34,34,0,0,1-.54-6.08V12.19h5.79Z"/><path d="M66.17,35.37,64.86,30.8H58.65l-1.39,4.57H51.48l7.16-23.18h7.52l7.27,23.18Zm-6.31-9.63h3.75L61.73,19Z"/><path d="M87.62,26.52l6.51.39A9.54,9.54,0,0,1,91,33.45a10.8,10.8,0,0,1-14.24-.85Q73.83,29.48,73.83,24a13.42,13.42,0,0,1,2.75-8.79,9.41,9.41,0,0,1,7.68-3.35c3.07,0,5.42.85,7.07,2.55a10.53,10.53,0,0,1,2.8,6.76l-6.64.36a5.09,5.09,0,0,0-.9-3.37,2.67,2.67,0,0,0-2.09-1q-3.37,0-3.37,6.76c0,2.52.3,4.24.88,5.14a2.75,2.75,0,0,0,2.45,1.36C86.34,30.36,87.4,29.08,87.62,26.52Z"/><path d="M3.2,43.81l.45-.51A2.29,2.29,0,0,0,5.28,44c.77,0,1.23-.39,1.23-1s-.43-.8-1-1l-.85-.37a1.58,1.58,0,0,1,.66-3.09,2.42,2.42,0,0,1,1.74.73l-.4.48a1.88,1.88,0,0,0-1.34-.55c-.66,0-1.1.33-1.1.86s.51.78,1,1l.84.36A1.66,1.66,0,0,1,7.28,43a1.79,1.79,0,0,1-2,1.68A2.8,2.8,0,0,1,3.2,43.81Z"/><path d="M8.43,38.68h.75v3h0l2.45-3h.85l-1.84,2.25,2.13,3.65H12L10.2,41.51l-1,1.21v1.86H8.43Z"/><path d="M13.64,38.68h.76v5.9h-.76Z"/><path d="M16,38.68h.75V44h2.58v.63H16Z"/><path d="M20.38,38.68h.76V44h2.57v.63H20.38Z"/><path d="M24.13,43.81l.45-.51a2.33,2.33,0,0,0,1.63.73c.78,0,1.24-.39,1.24-1s-.43-.8-1-1l-.85-.37a1.58,1.58,0,0,1,.67-3.09A2.4,2.4,0,0,1,28,39.3l-.39.48a1.92,1.92,0,0,0-1.34-.55c-.67,0-1.11.33-1.11.86s.52.78,1,1l.84.36A1.65,1.65,0,0,1,28.21,43a1.78,1.78,0,0,1-2,1.68A2.84,2.84,0,0,1,24.13,43.81Z"/><path d="M30.56,38.68h.78L32,41.89c.11.64.23,1.27.34,1.91h0c.13-.64.27-1.28.41-1.91l.83-3.21h.68l.82,3.21.42,1.91h0l.33-1.91.62-3.21h.73L36,44.58h-.91L34.2,41c-.1-.46-.2-.89-.28-1.34h0c-.09.45-.2.88-.3,1.34l-.87,3.55h-.89Z"/><path d="M38.24,38.68H39v5.9h-.75Z"/><path d="M41.84,39.31H40.05v-.63h4.33v.63H42.59v5.27h-.75Z"/><path d="M45.43,38.68h.75v2.47h2.75V38.68h.75v5.9h-.75V41.81H46.18v2.77h-.75Z"/><path d="M52.75,41.64c0-1.91,1.13-3.07,2.63-3.07A2.19,2.19,0,0,1,57,39.3l-.41.49a1.58,1.58,0,0,0-1.2-.56c-1.12,0-1.86.91-1.86,2.39S54.24,44,55.36,44a1.77,1.77,0,0,0,1.37-.66l.41.47a2.26,2.26,0,0,1-1.81.85C53.86,44.69,52.75,43.55,52.75,41.64Z"/><path d="M58.24,38.68h1.85c1.2,0,2.07.43,2.07,1.66s-.87,1.75-2.07,1.75H59v2.49h-.75ZM60,41.48c.92,0,1.43-.38,1.43-1.14S60.9,39.29,60,39.29H59v2.19Zm0,.4.59-.39,1.8,3.09h-.85Z"/><path d="M63.36,38.68h3.4v.63H64.11v1.85h2.24v.64H64.11V44h2.74v.63H63.36Z"/><path d="M69.32,38.68h.85l2,5.9h-.79l-1-3.3c-.22-.66-.41-1.3-.59-2h0c-.18.69-.37,1.33-.59,2l-1,3.3h-.76Zm-.95,3.5h2.72v.6H68.37Z"/><path d="M73.73,39.31H71.94v-.63h4.33v.63H74.48v5.27h-.75Z"/><path d="M77.33,38.68h.75v5.9h-.75Z"/><path d="M78.89,38.68h.79l1,3.19c.2.69.35,1.26.57,2h0c.22-.69.37-1.26.57-2l1-3.19h.76l-1.87,5.9h-.88Z"/><path d="M84.29,38.68H85v5.9h-.75Z"/><path d="M87.89,39.31H86.1v-.63h4.33v.63H88.64v5.27h-.75Z"/><path d="M92.31,42.29l-1.77-3.61h.8l.76,1.66c.19.44.37.85.58,1.29h0c.21-.44.41-.85.59-1.29l.76-1.66h.78l-1.77,3.61v2.29h-.76Z"/><path d="M122.48,6a5.1,5.1,0,0,0,.66-1.37,1.07,1.07,0,0,0-.28-1.15,6.77,6.77,0,0,0-2.79-.77,19.35,19.35,0,0,0-6.52.39,21.82,21.82,0,0,0-11.06,5.8,14.81,14.81,0,0,0-2,2.41,6.15,6.15,0,0,0-1.2,2.9c-.08,1.46.91,3,3,4.6a27.51,27.51,0,0,0,3.43,2.28l4,2.35a28.85,28.85,0,0,1,3.42,2.33A12.57,12.57,0,0,1,115,27.53l1.48-.33a29,29,0,0,1,6.62-.38c.69.07,1,.2,1,.38s-.22.18-.66.22a9.93,9.93,0,0,1-1.48,0l-1.48,0a26.33,26.33,0,0,0-5,.71c.18.3.35.59.49.88.29-.07.57-.13.82-.17a7,7,0,0,1,1.37-.21c.37,0,.57.05.6.16s0,.14-.08.19a1.55,1.55,0,0,1-.38.16,2.33,2.33,0,0,1-.49.12,2.31,2.31,0,0,0-.47.08l-.27.05a7.07,7.07,0,0,0-.82.17,5.16,5.16,0,0,1,.38,1.15,7.54,7.54,0,0,1-.55,4.65,14,14,0,0,1-3.56,5,12.66,12.66,0,0,1-5.2,3.17q-3.84,1.09-5.91-.87A3.64,3.64,0,0,1,100.19,40a5.45,5.45,0,0,1,.66-2.91,13.67,13.67,0,0,1,3.94-4.54,30.82,30.82,0,0,1,5.48-3.45,14.16,14.16,0,0,1,1.37-.6A35.55,35.55,0,0,0,106,24.65q-3.91-2.26-4.35-2.54a14.75,14.75,0,0,1-4.28-3.78,6.74,6.74,0,0,1-.93-5.48,11.3,11.3,0,0,1,2-4,19.19,19.19,0,0,1,4-4.05,25.38,25.38,0,0,1,11-4.38A28.86,28.86,0,0,1,119.52,0q3.62.27,5.2,1.86A3.27,3.27,0,0,1,125.54,4a4.57,4.57,0,0,1-.65,2.3,4.49,4.49,0,0,1-.6,1,9.83,9.83,0,0,1-.74.79c-.24.22-.54.48-.91.77s-.65.52-.87.68-.53.38-.93.63c-.19.15-.39.29-.61.44a15.45,15.45,0,0,1-1.42.93,7,7,0,0,1-1.1.55c-.43.11-.71.08-.82-.08s0-.45.22-.85a3.59,3.59,0,0,1,.71-.82A26.23,26.23,0,0,1,120,8.42,16.61,16.61,0,0,0,122.48,6ZM103.92,21.89A17.41,17.41,0,0,1,99,18a5.68,5.68,0,0,1-1.32-3.39,7.73,7.73,0,0,1,.66-3,5.94,5.94,0,0,0-.49,4.49A7.8,7.8,0,0,0,100,19.32a23.92,23.92,0,0,0,4.33,3.12c3,1.71,4.76,2.72,5.2,3A22.94,22.94,0,0,1,113,28l.49-.11a19.82,19.82,0,0,0-3.83-2.79l-2.9-1.61C105.43,22.79,104.5,22.26,103.92,21.89Zm11.55,10a5,5,0,0,0-.55-2l-.49.16a4.91,4.91,0,0,1,.33,3.07,10.36,10.36,0,0,1-1.54,3.39,12,12,0,0,1-3.66,3.78,7.18,7.18,0,0,1-5.26,1.59,2.32,2.32,0,0,1-2-1.26,3.11,3.11,0,0,1,.28-2.68,13.59,13.59,0,0,1,3.66-4.33,22.18,22.18,0,0,1,5-3c.58-.22,1.17-.46,1.75-.71a8.47,8.47,0,0,0-.66-.82,30.21,30.21,0,0,0-4.05,2A16.83,16.83,0,0,0,103.48,35a12.25,12.25,0,0,0-1.7,2.57,4.78,4.78,0,0,0-.49,3.12,2.59,2.59,0,0,0,1.89,1.89,6.19,6.19,0,0,0,3,.08,11.94,11.94,0,0,0,5.43-2.84,13,13,0,0,0,3.34-5A6.41,6.41,0,0,0,115.47,31.91Zm-2.08-1.2-.11-.22c-.62.25-1.21.51-1.75.76a23.58,23.58,0,0,0-4.88,3.07,10.61,10.61,0,0,0-3.45,4.44c-.32,1.09-.14,1.77.55,2a4.08,4.08,0,0,0,2.63-.11,10.07,10.07,0,0,0,4.54-2.79,11.05,11.05,0,0,0,2.58-4.44A3.92,3.92,0,0,0,113.39,30.71Zm1-1.59a6,6,0,0,0-.38-.55,2.26,2.26,0,0,0-.5.16l.33.44c.07.11.17.24.28.39l.49-.17A2.3,2.3,0,0,0,114.43,29.12Z"/><path d="M150.19,13.79a.8.8,0,0,1,0,1.2,1.62,1.62,0,0,1-1.15.38.42.42,0,0,1-.22,0v0c0,.15-.28.22-.71.22l-.33,0-.41,0h-.31c-.18,0-.91,0-2.18.16a5.11,5.11,0,0,1-.72.08c-.25,0-.51,0-.76.09a6.44,6.44,0,0,0-.66.11l-1,0c-.5,0-.87.05-1.13.08l-5.42.28c-.47,0-1.15.05-2,.05h-1.81c-1.06,0-1.77.08-2.14.11a3.87,3.87,0,0,1-.6.11,4,4,0,0,1-.55.06c-.36,1.42-.56,2.21-.6,2.35-.62,2.41-1,3.8-1.15,4.16s-.23.85-.35,1.34-.27,1-.42,1.51-.27.95-.38,1.32a41.48,41.48,0,0,0-1,4.16c-.22,1-.36,1.75-.44,2.19s-.23,1.11-.49,2.13a11.25,11.25,0,0,0-.22,2c0,.25,0,.63,0,1.12s-.06.87-.06,1.12a11.16,11.16,0,0,0,.06,2.14,0,0,0,0,1,0,.05c0,.22.07.41.11.55a.9.9,0,0,0,.25.41.6.6,0,0,0,.46.19,8.39,8.39,0,0,0,1.86-.49L127.46,42q.23-.16.33-.09a.35.35,0,0,1,.11.28.51.51,0,0,1-.16.35,3.82,3.82,0,0,1-.88.61,4.65,4.65,0,0,1-.82.49,5.64,5.64,0,0,1-1.92.71,1.5,1.5,0,0,1-1.45-.66,4.43,4.43,0,0,1-.79-1.75q0-.16-.06-2.13V37.61c0-.22.09-.56.17-1s.12-.81.16-1.07.07-.45.11-.71.07-.52.11-.79.07-.52.11-.74c.22-1.75.44-3.16.66-4.22s.6-2.59,1-4.16c.11-.47.21-.93.32-1.37a9.08,9.08,0,0,0-.43,1.37l-.25.69c-.09.23-.17.48-.25.74s-.14.49-.22.71a5.21,5.21,0,0,0-.19.65c0,.26-.11.52-.16.8a4.88,4.88,0,0,1-.19.68c-.3,1.1-.48,1.86-.55,2.3-.22,1.13-.38,1.86-.49,2.19a18.46,18.46,0,0,0-.72,4.44c0,.25,0,.72-.08,1.39a15.45,15.45,0,0,0,0,1.73,12,12,0,0,0,.13,1.37,3.88,3.88,0,0,0,1,1.89,2.57,2.57,0,0,0,1.78.85,3.7,3.7,0,0,0,1.92-.5,2,2,0,0,0,.55-.24,2.59,2.59,0,0,0,.38-.25q.49-.27.6.06c.08.18-.11.4-.55.65a5.08,5.08,0,0,1-.87.44,4.51,4.51,0,0,1-1.92.49,3.17,3.17,0,0,1-3.07-1.8,8.1,8.1,0,0,1-.87-3.56,22.45,22.45,0,0,1,.22-4.49c.29-1.94.57-3.43.82-4.49.07-.37.44-1.83,1.09-4.38,0-.19.09-.41.14-.69s.1-.54.14-.79a2.66,2.66,0,0,1,.16-.66c.08-.25.19-.63.36-1.12a9.28,9.28,0,0,0,.3-1.07c.69-2.34,1.15-3.76,1.37-4.27s.44-1.13.66-1.75c-.37,0-.79,0-1.26.05l-1.81.06L120,17c-1,0-1.71.07-2.08.11s-1.07.06-2.13.06l-1.18,0-1,0h-.28c-.69,0-1.07-.29-1.15-.88a.56.56,0,0,1,.22-.57,2.11,2.11,0,0,1,.71-.3,4.67,4.67,0,0,1,.88-.3,7,7,0,0,1,1.31-.3l2.52-.33,2.08-.28,2.3-.22c.19,0,.55-.08,1.1-.13a12,12,0,0,1,1.26-.08c.36,0,.91,0,1.64-.06.07-.18.18-.46.33-.82a4,4,0,0,1,.27-.6c.08-.26.2-.63.39-1.13s.31-.84.38-1.06a.69.69,0,0,1,.17-.22,1,1,0,0,1,.65-.82.62.62,0,0,1,.93.16.63.63,0,0,1,.19.41,4.79,4.79,0,0,1-.13,1.12c-.11.92-.22,1.63-.33,2.14a.85.85,0,0,0-.11.33,2.1,2.1,0,0,0-.06.38c.74,0,2.34-.09,4.82-.16.37,0,1-.06,1.87-.06a8.4,8.4,0,0,1,1.53.06q.43,0,1.29-.09l1-.08a40.3,40.3,0,0,1,4.54.06h1.21l1-.11a14.54,14.54,0,0,1,2.24.16h.44a3.16,3.16,0,0,1,.5,0,2.88,2.88,0,0,1,.41.11A1,1,0,0,1,150.19,13.79Zm-.82.87c.32-.07.45-.2.38-.38s-.17-.13-.38-.17-1.06,0-2.2,0a19.89,19.89,0,0,0-2.19,0,9.57,9.57,0,0,0-1.2.11,9.59,9.59,0,0,1-1.1.11h-1.15a9.64,9.64,0,0,0-1.15.05,12.52,12.52,0,0,1-2.24.17c-.37,0-1.9.13-4.6.38a9.44,9.44,0,0,0-1.15.11,9.62,9.62,0,0,1-1.15.11c-1.1.11-1.88.16-2.36.16h-.43a.2.2,0,0,1,0,.11.26.26,0,0,0,0,.11h1.48c.69-.07,1.13-.11,1.31-.11h1.7c.15,0,.47,0,1,0s.87-.06,1.12-.06c.77,0,1.46.06,2.08.06a19.51,19.51,0,0,0,2.08-.11l2.14-.06,1.07,0,1,0a5.21,5.21,0,0,1,.55-.08l.49-.06a4.1,4.1,0,0,1,.52,0h.52c1,0,1.64,0,2.08-.06a2.89,2.89,0,0,1,1.21.06V15A1.28,1.28,0,0,1,149.37,14.66Z"/><path d="M146,31a.42.42,0,0,1,.09.14.6.6,0,0,1,0,.19.65.65,0,0,1-.11.22l-.17.25a1.12,1.12,0,0,1-.19.24c-.07.08-.15.15-.22.22l-.19.2-.16.16a.29.29,0,0,1-.14.08,11.44,11.44,0,0,1-1.81,1.59,6.29,6.29,0,0,1-4,1.37,3,3,0,0,1-2.79-2.19l-.05-.06v0A19,19,0,0,1,134.8,35a10.82,10.82,0,0,1-2.25,1.7,3.4,3.4,0,0,1-3.5.22q-2-1.16-1.21-4.49a13.9,13.9,0,0,1,.88-2.69l1.37-2.62.11-.11a1.24,1.24,0,0,1,.55-.66.79.79,0,0,1,1.15.11.52.52,0,0,1,.13.3,1.21,1.21,0,0,1,0,.38,1.9,1.9,0,0,1-.08.36c0,.11-.08.24-.14.38a1.25,1.25,0,0,0-.08.33c-.15.62-.36,1.39-.66,2.3a3.42,3.42,0,0,0-.13.39c-.06.18-.13.42-.22.73s-.17.61-.22.88-.1.55-.14.82a4.1,4.1,0,0,0,0,.66c0,.16.09.25.2.25a1,1,0,0,0,.33-.11c.21-.15.47-.31.76-.5a9,9,0,0,0,1.64-1.59c.15-.18.41-.47.77-.87s.64-.71.82-.93l1.37-1.92.58-.79.63-.91a3.47,3.47,0,0,1,.76-.82,1.39,1.39,0,0,1,1.43-.19,1.44,1.44,0,0,1,.93,1.12,5.08,5.08,0,0,1-.55,2,2.27,2.27,0,0,1-.25.55c-.13.22-.23.43-.33.63a3.84,3.84,0,0,0-.19.52,4.15,4.15,0,0,0-.16,2c.07.44.49.56,1.26.38a4.53,4.53,0,0,0,1.92-.93,8.74,8.74,0,0,1,.82-.77,3.48,3.48,0,0,1,.41-.32l.46-.33a9.46,9.46,0,0,0,1.43-1.65.28.28,0,0,1,.3-.19.26.26,0,0,1,.22.25,1.88,1.88,0,0,1-.41.87,12,12,0,0,1-3.4,3.13c-.58.33-1,.56-1.37.71a3.33,3.33,0,0,1-1.29.22,1.4,1.4,0,0,1-1.23-.66A2.66,2.66,0,0,1,138,31c-.32.41-.6.77-.82,1.1a1.67,1.67,0,0,0,.06.44,2.19,2.19,0,0,0,1,1.8,2.94,2.94,0,0,0,2.3.33,7.62,7.62,0,0,0,2-.93,11.43,11.43,0,0,0,1.92-1.37,12.18,12.18,0,0,0,.82-.93C145.58,31.11,145.84,31,146,31Zm-10,.66v-.44a12.42,12.42,0,0,1-.77,1l-1,1.15c-.36.42-.65.74-.87.95a8.05,8.05,0,0,0,1.15-1.14C135.49,32.31,136,31.8,136.06,31.69ZM138.25,28a14.36,14.36,0,0,0-.82,1.91c.62-.83,1.18-1.6,1.69-2.3a1.3,1.3,0,0,0,.06-.32.31.31,0,0,1-.11-.22v.05a.21.21,0,0,1,.05.11.14.14,0,0,1,.11.06.87.87,0,0,0,0-.33c-.08-.11-.18-.08-.33.11h0a6.28,6.28,0,0,0-.38.54C138.43,27.66,138.36,27.79,138.25,28Zm.82-1V27H139A.05.05,0,0,0,139.07,27Z"/><path d="M163.55,5a1.73,1.73,0,0,1,.11.63,2.52,2.52,0,0,1-.06.6l-.16.69a2.54,2.54,0,0,0-.11.6c0,.07-.2.91-.5,2.52q0,.11-.93,4.92c-.14.63-.29,1.3-.43,2s-.31,1.5-.5,2.3-.33,1.46-.43,2c-.15.81-.33,2-.55,3.45s-.39,2.52-.5,3.07q-.44,2.36-1.2,6.57-.22,1-.63,3.12c-.27,1.39-.48,2.51-.63,3.37s-.32,1.89-.52,3.09-.36,2.32-.47,3.34-.47,3.27-1.09,6.41c-.15.77-.33,1.88-.55,3.34s-.36,2.46-.44,3-.21.85-.32.91-.19,0-.22-.25a5.67,5.67,0,0,0-.09-.82,5.47,5.47,0,0,1,.11-.85c.09-.53.14-.81.14-.85q1.26-8.49,2-13,.39-2.13,1-6.57c.07-.47.44-2.65,1.09-6.52.08-.32.15-.71.22-1.14l-.22-.22-.11-.11-.44-.44c-.36,2-.62,3.47-.76,4.38q-.82,4.22-1,5.91c-.19,1.32-.48,3.23-.88,5.75s-.67,4.38-.82,5.59c-.11.8-.22,1.57-.33,2.3a6.33,6.33,0,0,1-.11.66,2.3,2.3,0,0,1-.27.71c-.11.07-.19.06-.25,0a.79.79,0,0,1-.05-.44,4.3,4.3,0,0,0,0-.46v-.28q.22-1.59,1.65-12.1c.58-4.09,1.06-7.23,1.42-9.42.07-.62.2-1.49.38-2.63A29.11,29.11,0,0,1,154.62,33a15.34,15.34,0,0,1-1.23,1.86,21.19,21.19,0,0,1-1.62,1.8,6.43,6.43,0,0,1-4.05,2,3.09,3.09,0,0,1-2.24-.63,3.4,3.4,0,0,1-1.73-2,5.36,5.36,0,0,1,0-2.87,10.51,10.51,0,0,1,3.51-5.26,8.34,8.34,0,0,1,5.15-2.25,5.41,5.41,0,0,1,2,.28c.29-.73.56-1.48.82-2.25.47-1.46,1.06-3.56,1.75-6.29q1.49-5.6,1.59-6.3l.36-1.54c.16-.73.3-1.27.41-1.64A20.31,20.31,0,0,1,160,5.08a1.87,1.87,0,0,1,1.32-1.32,1.76,1.76,0,0,1,1.31.2A1.74,1.74,0,0,1,163.55,5Zm-10.74,24.7c.26-.55.52-1.15.77-1.81a3.38,3.38,0,0,0-.6-.06,5.88,5.88,0,0,0-3.89,1.7,15.07,15.07,0,0,0-1.59,1.75,7.86,7.86,0,0,0-1.31,2.69c-.22,1.09.13,1.73,1,1.91a2.74,2.74,0,0,0,2.35-1A14.92,14.92,0,0,0,152.81,29.67Zm7.07-10.46a3.59,3.59,0,0,1,.05-.47,2.51,2.51,0,0,0,.06-.46c-.15.65-.35,1.4-.61,2.24-.58,2-1,3.51-1.42,4.6-.22,1.46-.36,2.43-.44,2.9a3.3,3.3,0,0,1,.61.82c.21-1.42.38-2.48.49-3.17s.31-1.76.6-3.21S159.73,19.94,159.88,19.21Zm2.19-13.53h.05c0-.36-.14-.51-.44-.44a.61.61,0,0,0-.21.28h.11a.25.25,0,0,1,.16.05h0v0h0A1.09,1.09,0,0,1,162.07,5.68Zm-.33-.11-.11-.05Zm-.06.44a1.55,1.55,0,0,0,.11-.44A1.38,1.38,0,0,0,161.68,6Z"/><path d="M175.15,32.07c0,.08,0,.26-.21.55a.9.9,0,0,0-.14.17l-.17.22a1,1,0,0,0-.13.22c-1.06,1.49-1.66,2.33-1.81,2.51a14,14,0,0,1-2.08,2A6.74,6.74,0,0,1,166,39.36a5.43,5.43,0,0,1-1.92-.6,4.29,4.29,0,0,1-1.21-1.1,7,7,0,0,1-.54-.71,5,5,0,0,1-.28-1.53,10.29,10.29,0,0,1,.33-3.07c0-.11.08-.23.14-.36s.11-.23.16-.33a3.1,3.1,0,0,0,.17-.32c.05-.13.1-.25.13-.36s.12-.34.25-.68a6.47,6.47,0,0,0,.25-.8,5.41,5.41,0,0,1,.65-1.31c.08-.19.2-.43.36-.74l.3-.58a.17.17,0,0,1,.06-.11.47.47,0,0,0,.05-.16.8.8,0,0,1,.85-.3.84.84,0,0,1,.74.52,1,1,0,0,1,.05.6c0,.07,0,.27-.05.6a4.14,4.14,0,0,1-.28,1.26l-.65,2.58c-.15.69-.24,1.15-.28,1.37s0,.36,0,.65a3.74,3.74,0,0,1-.09.66,3.3,3.3,0,0,0,.11,1.15c.11.29.24.46.39.49a2.47,2.47,0,0,0,1.75-.11,1.17,1.17,0,0,0,.36-.08,1.08,1.08,0,0,1,.35-.08,2.38,2.38,0,0,0,.88-.66c.14-.14.78-.69,1.91-1.64l.93-.82a2.54,2.54,0,0,0,.36-.52,2.08,2.08,0,0,1,.25-.41,1.55,1.55,0,0,1,.46-.5,1.91,1.91,0,0,1,.41-.27,4.15,4.15,0,0,0,.41-.49,5.6,5.6,0,0,1,.39-.47.22.22,0,0,1,.3,0,.59.59,0,0,1,.22.28.91.91,0,0,1-.22.38,4.71,4.71,0,0,0-.39.49c-.1.15-.26.34-.46.58a6.48,6.48,0,0,0-.41.52c-.11.11-.26.26-.44.46l-.41.47a5.26,5.26,0,0,0-.36.52,2.59,2.59,0,0,1-.38.52,2.21,2.21,0,0,1-.44.44c-.22.18-.37.32-.46.41a4.52,4.52,0,0,0-.36.44,2,2,0,0,1-.38.41l-.22.19-.22.14a2.3,2.3,0,0,0-.27.16l-.22.16a9.31,9.31,0,0,1-1,.61,4.91,4.91,0,0,1-2.52.49,2,2,0,0,1-1.54-1.1,4.11,4.11,0,0,1-.38-1.2,1.85,1.85,0,0,0-.11-.49,3.56,3.56,0,0,0,.38,1.91,2.46,2.46,0,0,0,1.7,1.21,9.38,9.38,0,0,0,2.47-.17,7.24,7.24,0,0,0,1.48-.54,7.37,7.37,0,0,0,1-.88c.18-.18.53-.48,1.06-.9a6.67,6.67,0,0,0,1.13-1.07c.51-.69.8-1.08.87-1.15a12.58,12.58,0,0,0,.93-1.21c.15-.21.28-.32.39-.32S175.12,31.93,175.15,32.07Zm-6.24-9.91a1.1,1.1,0,0,1-.9,1.45,1.53,1.53,0,0,1-1.84-.52,1.64,1.64,0,0,1-.16-1.78,1.48,1.48,0,0,1,1.42-1,1.57,1.57,0,0,1,.77.25,1.58,1.58,0,0,1,.6.52.83.83,0,0,1,.11.82c0,.11-.13.09-.27-.05a1,1,0,0,0-.22-.61.57.57,0,0,0-.55-.33,1.12,1.12,0,0,0-.82.11,1.14,1.14,0,0,0-.49.88.62.62,0,0,0,.44.82.83.83,0,0,1-.14-1,.61.61,0,0,1,.9-.27c.44.18.37.31-.22.38-.25.15-.27.29,0,.44,0,0,.18,0,.44-.08a6.15,6.15,0,0,1,.63-.2A.29.29,0,0,1,168.91,22.16Z"/><path d="M191.86,30.49a.38.38,0,0,1,.41,0c.12.07.13.2,0,.38a2.56,2.56,0,0,1-.93.55,17.41,17.41,0,0,1-4.27,1.09c0,.33-.07.66-.11,1l.71-.11a10.31,10.31,0,0,0,1.54-.33,2.33,2.33,0,0,0,.44-.14,1.83,1.83,0,0,1,.49-.13l.44.05c.14.15.16.27.05.36a1.5,1.5,0,0,1-.44.24,10.93,10.93,0,0,1-1.53.39c-.62.14-1.24.27-1.86.38A7.89,7.89,0,0,1,185,37.5a6,6,0,0,1-5.42,1.75A4.86,4.86,0,0,1,177,37.91a4.1,4.1,0,0,1-1.26-2.49,5.11,5.11,0,0,1,.22-2.09,4.4,4.4,0,0,1-2.14-1.8,3.68,3.68,0,0,1-.36-2.41,4.66,4.66,0,0,1,1.13-2.19,6,6,0,0,1,2.52-1.65,7.38,7.38,0,0,1,3.06-.43,6.88,6.88,0,0,1,4.49,2,10.1,10.1,0,0,1,1.86,2.3,5.73,5.73,0,0,1,.61,2.47c.18,0,.53-.08,1-.14l1.2-.14A9,9,0,0,0,191.86,30.49Zm-16.49,1.2a3.29,3.29,0,0,0,1,.66,7.44,7.44,0,0,1,.38-.66,2.79,2.79,0,0,1-1-.71,1.88,1.88,0,0,1-.33-1.92,3.43,3.43,0,0,1,1.37-1.58,6.07,6.07,0,0,1,5-.83,6,6,0,0,1,3.45,3.29,6.12,6.12,0,0,1,.38,1.92h.11a5.72,5.72,0,0,0-1.37-3.73,7.11,7.11,0,0,0-2.24-1.64,4.93,4.93,0,0,0-2.74-.47,7.1,7.1,0,0,0-2.93.93,4.14,4.14,0,0,0-1.83,2.11A2.11,2.11,0,0,0,175.37,31.69Zm1.37-1.31.71.33a4.16,4.16,0,0,1,.5-.61.93.93,0,0,0,.22-.16,2.52,2.52,0,0,1,.87-.66,1.16,1.16,0,0,1,1,.06.59.59,0,0,1,.19.35.69.69,0,0,1-.08.41,2.85,2.85,0,0,1-.19.36,4.28,4.28,0,0,1-.27.38,1,1,0,0,0-.19.3,1.3,1.3,0,0,0-.17.22q.56.12,1.86.33c.7.11,1.61.2,2.74.28a4.08,4.08,0,0,0-1.86-3.34,3.2,3.2,0,0,0-1.26-.66,4.71,4.71,0,0,0-2.63.22,3.41,3.41,0,0,0-1.64,1.2,3.63,3.63,0,0,0-.22.33C176.29,29.94,176.41,30.16,176.74,30.38Zm1.86,5.47a2.2,2.2,0,0,0,2.19.71,3.61,3.61,0,0,0,2.52-2,20,20,0,0,1-4.32-.33c-.29,0-.53-.07-.71-.11A2.35,2.35,0,0,0,178.6,35.85ZM183.92,33a1.26,1.26,0,0,0,.05-.33,4.28,4.28,0,0,1-.55,0,15.55,15.55,0,0,1-2.79-.11,16.1,16.1,0,0,1-1.75-.33,6.08,6.08,0,0,0-.38.77,18.11,18.11,0,0,0,2.68.55,14.16,14.16,0,0,0,2.52.11A3.35,3.35,0,0,0,183.92,33Zm1.75-.39a4.74,4.74,0,0,0-.06.71c0-.25.08-.49.11-.71Z"/></g></g></svg>