<svg xmlns="http://www.w3.org/2000/svg" viewBox="0 0 110.99 35.39"><defs><style>.cls-1{fill:#4a4d50;}</style></defs><g id="Layer_2" data-name="Layer 2"><g id="Layer_1-2" data-name="Layer 1"><path class="cls-1" d="M13.37,35.3,1.51,28.68A2.94,2.94,0,0,1,0,26.12v-14a.7.7,0,0,1,1-.61l12.62,7a1.46,1.46,0,0,1,.76,1.28v14.9A.71.71,0,0,1,13.37,35.3Z"/><path class="cls-1" d="M18.36,35.3l11.87-6.62a2.93,2.93,0,0,0,1.5-2.56v-14a.7.7,0,0,0-1-.61l-12.62,7a1.48,1.48,0,0,0-.75,1.28v14.9A.7.7,0,0,0,18.36,35.3Z"/><path class="cls-1" d="M1.58,7.41,13.68.63a4.87,4.87,0,0,1,4.83,0L30,7.25A1,1,0,0,1,30,9L15.91,16.82,1.56,8.88A.85.85,0,0,1,1.58,7.41Z"/><path class="cls-1" d="M39.9,22.12V10.93h3c1.39,2.51,4,7,4.49,8.26h0c-.13-1.16-.12-3.11-.12-4.94V10.93h2.19V22.12H46.64c-1.2-2.19-4.06-7.39-4.61-8.68h0c.08,1,.1,3.27.1,5.28v3.4Z"/><path class="cls-1" d="M53.53,18.42c0,1,.53,2.07,1.68,2.07a1.32,1.32,0,0,0,1.47-.89H59a3.68,3.68,0,0,1-3.86,2.71c-2.76,0-4-2.06-4-4.27,0-2.63,1.35-4.51,4.05-4.51,2.88,0,3.86,2.08,3.86,4.18a5.31,5.31,0,0,1,0,.71ZM56.77,17c0-1-.41-1.8-1.54-1.8S53.67,16,53.58,17Z"/><path class="cls-1" d="M59.88,13.72h1.29V11.45H63.5v2.27h1.64v1.75H63.5v4.14c0,.64.19.89.89.89a3.45,3.45,0,0,0,.53,0v1.6a5.21,5.21,0,0,1-1.57.16c-1.63,0-2.18-.87-2.18-2.34V15.47H59.88Z"/><path class="cls-1" d="M68.67,22.12,65.82,10.93H68.4c1,5.14,1.52,7.42,1.65,8.65h0c.43-2,1.51-5.95,2.16-8.65H74.4c.58,2.15,1.71,6.49,2.07,8.54h0c.37-2.47,1.47-6.8,1.86-8.54H80.7l-3,11.19h-2.5c-.59-2.48-1.58-6.09-2-8h0c-.4,2-1.41,5.76-2,8Z"/><path class="cls-1" d="M89.09,17.9c0,2.54-1.52,4.41-4.18,4.41S80.79,20.46,80.79,18s1.57-4.42,4.23-4.42C87.49,13.53,89.09,15.27,89.09,17.9Zm-5.94,0c0,1.62.69,2.57,1.81,2.57s1.77-.95,1.77-2.56-.64-2.58-1.8-2.58S83.15,16.14,83.15,17.92Z"/><path class="cls-1" d="M90.69,16c0-.84,0-1.58,0-2.28H93c0,.19.06,1,.06,1.48a2.69,2.69,0,0,1,2.7-1.67v2.22C94,15.7,93,16.16,93,18.46v3.66H90.69Z"/><path class="cls-1" d="M96.59,13.72h1.29V11.45h2.33v2.27h1.64v1.75h-1.64v4.14c0,.64.19.89.88.89a3.39,3.39,0,0,0,.53,0v1.6a5.15,5.15,0,0,1-1.56.16c-1.64,0-2.18-.87-2.18-2.34V15.47H96.59Z"/><path class="cls-1" d="M105.5,10.28v4.43a2.71,2.71,0,0,1,2.41-1.18c1.56,0,2.81.92,2.81,3.2v5.39h-2.31v-5c0-1.09-.39-1.67-1.36-1.67-1.29,0-1.55,1-1.55,2.25v4.46h-2.32V10.28Z"/><path class="cls-1" d="M40.85,24.62v2.83h-.61V24.62Z"/><path class="cls-1" d="M41.52,27.45V24.62h.76c.36.63,1,1.78,1.14,2.09h0c0-.3,0-.79,0-1.25v-.84H44v2.83h-.72c-.3-.55-1-1.87-1.17-2.2h0c0,.25,0,.83,0,1.34v.86Z"/><path class="cls-1" d="M45.31,27.45l-1-2.83H45l.42,1.31q.19.59.3,1h0a9.61,9.61,0,0,1,.31-1l.44-1.32h.62l-1,2.83Z"/><path class="cls-1" d="M49.34,26.23H48V27h1.49l-.07.5h-2V24.62h2v.5H48v.61h1.35Z"/><path class="cls-1" d="M49.92,27.45V24.62h.76c.35.63,1,1.78,1.14,2.09h0c0-.3,0-.79,0-1.25v-.84h.56v2.83h-.72c-.31-.55-1-1.87-1.17-2.2h0c0,.25,0,.83,0,1.34v.86Z"/><path class="cls-1" d="M53.62,25.12h-.86v-.5h2.33v.5h-.85v2.33h-.62Z"/><path class="cls-1" d="M58,26a1.35,1.35,0,0,1-1.39,1.47A1.33,1.33,0,0,1,55.24,26a1.34,1.34,0,0,1,1.39-1.45A1.32,1.32,0,0,1,58,26Zm-2.12,0c0,.55.25,1,.75,1s.74-.45.74-1-.22-1-.75-1S55.87,25.47,55.87,26Z"/><path class="cls-1" d="M59.12,26.32v1.13h-.6V24.62h1.25c.61,0,.95.34.95.78a.66.66,0,0,1-.42.66c.14.06.36.2.36.71v.14a2.2,2.2,0,0,0,0,.54h-.58a2,2,0,0,1-.06-.64v0c0-.31-.08-.45-.54-.45Zm0-.49h.51c.34,0,.47-.13.47-.37s-.15-.36-.45-.36h-.53Z"/><path class="cls-1" d="M61.91,27.45v-1a.16.16,0,0,0,0-.09l-1-1.74h.69c.22.42.5,1,.64,1.3.13-.3.44-.89.65-1.3h.64l-1,1.73a.14.14,0,0,0,0,.09v1Z"/><path class="cls-1" d="M67.19,26.39c0-.49,0-1,0-1.35h0c-.13.58-.41,1.52-.69,2.41H66c-.2-.77-.5-1.85-.62-2.42h0c0,.34,0,.92,0,1.41v1h-.56V24.62h.91c.22.74.47,1.67.55,2.09h0c.07-.37.38-1.37.61-2.09h.88v2.83h-.59Z"/><path class="cls-1" d="M69,26.8l-.22.65h-.6l1-2.83h.77l1,2.83h-.65L70,26.8Zm.91-.51c-.2-.59-.33-1-.4-1.23h0c-.07.28-.22.72-.38,1.23Z"/><path class="cls-1" d="M71.26,27.45V24.62H72c.35.63,1,1.78,1.13,2.09h0c0-.3,0-.79,0-1.25v-.84h.56v2.83H73c-.31-.55-1-1.87-1.17-2.2h0c0,.25,0,.83,0,1.34v.86Z"/><path class="cls-1" d="M74.89,26.8l-.22.65h-.61l1-2.83h.77l1,2.83h-.65l-.23-.65Zm.9-.51c-.2-.59-.33-1-.4-1.23h0c-.07.28-.21.72-.37,1.23Z"/><path class="cls-1" d="M79.58,27.45h-.45a1.26,1.26,0,0,1,0-.28,1,1,0,0,1-.83.33A1.28,1.28,0,0,1,77,26.07a1.35,1.35,0,0,1,1.39-1.49,1.11,1.11,0,0,1,1.22.89H79a.58.58,0,0,0-.62-.41c-.58,0-.75.48-.75,1s.19,1,.75,1a.56.56,0,0,0,.62-.62v0h-.62v-.51h1.22Z"/><path class="cls-1" d="M82.15,26.23H80.8V27h1.49l-.07.5h-2V24.62h2v.5H80.8v.61h1.35Z"/><path class="cls-1" d="M85.12,26.39c0-.49,0-1,0-1.35h0c-.14.58-.42,1.52-.69,2.41h-.52c-.21-.77-.5-1.85-.63-2.42h0c0,.34,0,.92,0,1.41v1h-.56V24.62h.91c.22.74.47,1.67.56,2.09h0c.07-.37.38-1.37.62-2.09h.88v2.83h-.59Z"/><path class="cls-1" d="M88.33,26.23H87V27h1.49l-.07.5h-2V24.62h2v.5H87v.61h1.35Z"/><path class="cls-1" d="M88.91,27.45V24.62h.76c.35.63,1,1.78,1.13,2.09h0c0-.3,0-.79,0-1.25v-.84h.55v2.83h-.72c-.3-.55-1-1.87-1.17-2.2h0c0,.25,0,.83,0,1.34v.86Z"/><path class="cls-1" d="M92.61,25.12h-.86v-.5h2.33v.5h-.85v2.33h-.62Z"/><path class="cls-1" d="M95.87,26.62a.52.52,0,0,0,.59.41c.33,0,.47-.13.47-.34s-.14-.33-.62-.44c-.77-.18-1-.46-1-.84s.37-.83,1-.83,1,.4,1.09.81h-.62c0-.17-.12-.36-.49-.36s-.4.1-.4.31.12.27.58.38c.83.19,1,.5,1,.9s-.4.87-1.14.87-1.1-.35-1.17-.87Z"/><path class="cls-1" d="M98.62,27.45v-1a.29.29,0,0,0,0-.09l-1-1.74h.69c.22.42.51,1,.65,1.3.12-.3.43-.89.64-1.3h.64l-1,1.73s0,0,0,.09v1Z"/><path class="cls-1" d="M100.91,26.62a.54.54,0,0,0,.6.41c.33,0,.46-.13.46-.34s-.13-.33-.62-.44c-.77-.18-1-.46-1-.84s.37-.83,1-.83,1,.4,1.09.81h-.61c0-.17-.13-.36-.49-.36s-.4.1-.4.31.12.27.58.38c.82.19,1,.5,1,.9s-.39.87-1.14.87-1.1-.35-1.17-.87Z"/><path class="cls-1" d="M103.64,25.12h-.86v-.5h2.34v.5h-.86v2.33h-.62Z"/><path class="cls-1" d="M107.44,26.23h-1.35V27h1.49l-.07.5h-2V24.62h2v.5h-1.41v.61h1.35Z"/><path class="cls-1" d="M110.4,26.39c0-.49,0-1,0-1.35h0c-.13.58-.41,1.52-.68,2.41h-.53c-.2-.77-.5-1.85-.62-2.42h0c0,.34,0,.92,0,1.41v1H108V24.62h.91c.22.74.47,1.67.55,2.09h0c.07-.37.38-1.37.62-2.09H111v2.83h-.59Z"/></g></g></svg>