<svg xmlns="http://www.w3.org/2000/svg" viewBox="0 0 128 128"><defs><style>.cls-1{fill:#fff;}.cls-2{fill:#4a4d50;}</style></defs><g id="Layer_2" data-name="Layer 2"><g id="Layer_1-2" data-name="Layer 1"><rect class="cls-1" width="128" height="128" rx="64"/><path class="cls-2" d="M59.67,94.6,39,83.1a5.11,5.11,0,0,1-2.62-4.46V54.25a1.22,1.22,0,0,1,1.81-1.07L60.17,65.42a2.54,2.54,0,0,1,1.31,2.23V93.54A1.22,1.22,0,0,1,59.67,94.6Z"/><path class="cls-2" d="M68.33,94.6,89,83.1a5.11,5.11,0,0,0,2.62-4.46V54.25a1.22,1.22,0,0,0-1.81-1.07L67.83,65.42a2.54,2.54,0,0,0-1.31,2.23V93.54A1.22,1.22,0,0,0,68.33,94.6Z"/><path class="cls-2" d="M39.16,46.13l21-11.8a8.48,8.48,0,0,1,8.39.05l20,11.46a1.8,1.8,0,0,1,0,3.11L64.08,62.48,39.14,48.68A1.47,1.47,0,0,1,39.16,46.13Z"/></g></g></svg>